<svg
        xmlns="http://www.w3.org/2000/svg"
        xmlns:xlink="http://www.w3.org/1999/xlink"
        width="20px" height="19px">
    <path fill-rule="evenodd"  fill="rgb(216, 216, 216)"
          d="M18.000,19.000 L2.000,19.000 C0.895,19.000 -0.000,18.104 -0.000,17.000 L-0.000,12.000 L20.000,12.000 L20.000,17.000 C20.000,18.104 19.105,19.000 18.000,19.000 ZM-0.000,7.000 C-0.000,5.895 0.895,5.000 2.000,5.000 L5.000,5.000 L5.000,2.000 C5.000,0.895 5.895,-0.000 7.000,-0.000 L13.000,-0.000 C14.105,-0.000 15.000,0.895 15.000,2.000 L15.000,5.000 L18.000,5.000 C19.105,5.000 20.000,5.895 20.000,7.000 L20.000,11.000 L-0.000,11.000 L-0.000,7.000 ZM7.000,5.000 L13.000,5.000 L13.000,2.000 L7.000,2.000 L7.000,5.000 Z"/>
</svg>