<?xml version="1.0" standalone="no"?><!DOCTYPE svg PUBLIC "-//W3C//DTD SVG 1.1//EN" "http://www.w3.org/Graphics/SVG/1.1/DTD/svg11.dtd"><svg class="icon" width="16px" height="16.00px" viewBox="0 0 1024 1024" version="1.1" xmlns="http://www.w3.org/2000/svg"><path d="M958.693878 431.59249l-27.69502 0L877.894531 129.347918c-4.994612-28.421224-28.052898-50.196898-56.714449-53.558857-102.627265-12.034612-206.646857-18.136816-309.169633-18.136816s-206.547592 6.102204-309.190531 18.136816c-28.661551 3.361959-51.717224 25.132408-56.714449 53.55102-12.930612 73.534694-25.850776 147.074612-38.765714 220.614531L92.995918 431.589878 65.306122 431.589878c-36.067265 0-65.306122 29.238857-65.306122 65.306122l0 273.703184c0 36.067265 29.238857 65.306122 65.306122 65.306122l4.790857 0 0 100.404245c0 16.59298 13.447837 30.040816 30.040816 30.040816l125.387755 0c16.59298 0 30.040816-13.447837 30.040816-30.040816l0-100.404245 512.867265 0 0 100.404245c0 16.59298 13.447837 30.040816 30.040816 30.040816l125.387755 0c16.59298 0 30.040816-13.447837 30.040816-30.040816l0-100.404245L958.693878 835.905306c36.067265 0 65.306122-29.238857 65.306122-65.306122L1024 496.898612C1024 460.833959 994.761143 431.59249 958.693878 431.59249zM176.762776 694.499265c-40.152816 0-72.704-32.548571-72.704-72.704S136.609959 549.093878 176.762776 549.093878s72.704 32.551184 72.704 72.701388C249.466776 661.948082 216.915592 694.499265 176.762776 694.499265zM682.98449 659.320163c0 17.705796-14.354286 32.057469-32.060082 32.057469L373.075592 691.377633c-17.705796 0-32.057469-14.356898-32.057469-32.057469l0-76.943673c0-17.705796 14.351673-32.057469 32.057469-32.057469l277.846204 0c17.705796 0 32.060082 14.356898 32.060082 32.057469L682.98449 659.320163 682.98449 659.320163zM214.070857 402.38498l6.622041-37.73649c9.294367-52.942367 18.604408-105.882122 27.909224-158.819265 3.594449-20.461714 20.187429-36.129959 40.832-38.548898 73.882122-8.667429 148.780408-13.058612 222.576327-13.058612 73.803755 0 148.686367 4.391184 222.558041 13.058612 20.641959 2.421551 37.237551 18.089796 40.829388 38.554122l34.528653 196.550531L214.070857 402.38498zM847.237224 694.499265c-40.152816 0-72.704-32.548571-72.704-72.704s32.551184-72.701388 72.704-72.701388 72.704 32.551184 72.704 72.701388C919.941224 661.948082 887.390041 694.499265 847.237224 694.499265z" /></svg>