<?xml version="1.0" standalone="no"?><!DOCTYPE svg PUBLIC "-//W3C//DTD SVG 1.1//EN" "http://www.w3.org/Graphics/SVG/1.1/DTD/svg11.dtd"><svg t="1517904314055" class="icon" style="" viewBox="0 0 1024 1024" version="1.1" xmlns="http://www.w3.org/2000/svg" p-id="2519" xmlns:xlink="http://www.w3.org/1999/xlink" width="200" height="200"><defs><style type="text/css"></style></defs><path d="M512 68.191078c-245.204631 0-443.808922 198.60429-443.808922 443.808922s198.60429 443.808922 443.808922 443.808922 443.808922-198.60429 443.808922-443.808922S757.203608 68.191078 512 68.191078zM556.38079 822.665529l-88.76158 0 0-88.76158 88.76158 0L556.38079 822.665529zM648.02707 478.935953l-39.720653 40.829917c-31.954783 31.953759-51.925626 58.804291-51.925626 125.375475l-88.76158 0 0-22.190395c0-49.040926 19.971867-93.421716 51.925626-125.597533l55.254441-55.919591c15.97688-15.97688 25.963325-38.167275 25.963325-62.577221 0-49.040926-39.720653-88.76158-88.76158-88.76158s-88.76158 39.720653-88.76158 88.76158l-88.76158 0c0-98.081853 79.441307-177.523159 177.523159-177.523159s177.523159 79.441307 177.523159 177.523159C689.523159 417.912112 673.768337 453.194686 648.02707 478.935953z" p-id="2520"></path></svg>