<svg
        xmlns="http://www.w3.org/2000/svg"
        xmlns:xlink="http://www.w3.org/1999/xlink"
        width="77px" height="76px">
    <path fill-rule="evenodd"  stroke="rgb(102, 102, 102)" stroke-width="2px" stroke-linecap="butt" stroke-linejoin="miter" fill="rgb(250, 250, 250)"
          d="M6.000,31.000 L70.000,31.000 C71.105,31.000 72.000,31.895 72.000,33.000 L72.000,71.000 L4.000,71.000 L4.000,33.000 C4.000,31.895 4.895,31.000 6.000,31.000 Z"/>
    <path fill-rule="evenodd"  stroke="rgb(102, 102, 102)" stroke-width="2px" stroke-linecap="butt" stroke-linejoin="miter" fill="rgb(250, 250, 250)"
          d="M38.000,1.000 L40.000,1.000 L40.000,16.000 L38.000,16.000 L38.000,1.000 Z"/>
    <path fill-rule="evenodd"  stroke="rgb(102, 102, 102)" stroke-width="2px" stroke-linecap="butt" stroke-linejoin="miter" fill="rgb(229, 229, 229)"
          d="M49.095,3.350 L47.334,5.110 C46.848,5.596 46.848,6.384 47.334,6.871 L49.095,8.631 C49.344,8.881 49.673,8.997 50.000,8.991 L50.000,10.000 C50.000,10.552 49.552,11.000 49.000,11.000 L38.000,11.000 L38.000,1.000 L49.000,1.000 C49.552,1.000 50.000,1.448 50.000,2.000 L50.000,2.990 C49.673,2.983 49.344,3.100 49.095,3.350 Z"/>
    <path fill-rule="evenodd"  stroke="rgb(102, 102, 102)" stroke-width="2px" stroke-linecap="butt" stroke-linejoin="miter" fill="rgb(250, 250, 250)"
          d="M60.899,26.265 C60.627,26.874 59.896,27.155 59.266,26.891 L38.995,18.401 L18.729,26.891 C18.100,27.155 17.369,26.874 17.096,26.265 C16.824,25.655 17.113,24.947 17.743,24.683 L38.261,16.087 C38.501,15.987 38.756,15.966 38.995,16.012 C39.233,15.966 39.488,15.987 39.729,16.087 L60.253,24.683 C60.882,24.947 61.172,25.655 60.899,26.265 Z"/>
    <path fill-rule="evenodd"  stroke="rgb(102, 102, 102)" stroke-width="2px" stroke-linecap="butt" stroke-linejoin="miter" fill="rgb(250, 250, 250)"
          d="M57.000,23.484 L57.011,23.488 L57.000,23.493 L57.000,70.000 L20.000,70.000 L20.000,23.344 L20.372,23.344 L38.513,15.984 L56.655,23.344 L57.000,23.344 L57.000,23.484 Z"/>
    <path fill-rule="evenodd"  stroke="rgb(153, 153, 153)" stroke-width="2px" stroke-linecap="butt" stroke-linejoin="miter" fill="rgb(250, 250, 250)"
          d="M65.000,59.000 L62.000,59.000 C61.448,59.000 61.000,58.552 61.000,58.000 L61.000,53.000 C61.000,52.448 61.448,52.000 62.000,52.000 L65.000,52.000 C65.552,52.000 66.000,52.448 66.000,53.000 L66.000,58.000 C66.000,58.552 65.552,59.000 65.000,59.000 ZM65.000,47.000 L62.000,47.000 C61.448,47.000 61.000,46.552 61.000,46.000 L61.000,41.000 C61.000,40.448 61.448,40.000 62.000,40.000 L65.000,40.000 C65.552,40.000 66.000,40.448 66.000,41.000 L66.000,46.000 C66.000,46.552 65.552,47.000 65.000,47.000 ZM49.000,46.000 L46.000,46.000 C45.448,46.000 45.000,45.552 45.000,45.000 L45.000,40.000 C45.000,39.448 45.448,39.000 46.000,39.000 L49.000,39.000 C49.552,39.000 50.000,39.448 50.000,40.000 L50.000,45.000 C50.000,45.552 49.552,46.000 49.000,46.000 ZM49.000,35.000 L46.000,35.000 C45.448,35.000 45.000,34.552 45.000,34.000 L45.000,29.000 C45.000,28.448 45.448,28.000 46.000,28.000 L49.000,28.000 C49.552,28.000 50.000,28.448 50.000,29.000 L50.000,34.000 C50.000,34.552 49.552,35.000 49.000,35.000 ZM40.000,46.000 L37.000,46.000 C36.448,46.000 36.000,45.552 36.000,45.000 L36.000,40.000 C36.000,39.448 36.448,39.000 37.000,39.000 L40.000,39.000 C40.552,39.000 41.000,39.448 41.000,40.000 L41.000,45.000 C41.000,45.552 40.552,46.000 40.000,46.000 ZM40.000,35.000 L37.000,35.000 C36.448,35.000 36.000,34.552 36.000,34.000 L36.000,29.000 C36.000,28.448 36.448,28.000 37.000,28.000 L40.000,28.000 C40.552,28.000 41.000,28.448 41.000,29.000 L41.000,34.000 C41.000,34.552 40.552,35.000 40.000,35.000 ZM31.000,46.000 L28.000,46.000 C27.448,46.000 27.000,45.552 27.000,45.000 L27.000,40.000 C27.000,39.448 27.448,39.000 28.000,39.000 L31.000,39.000 C31.552,39.000 32.000,39.448 32.000,40.000 L32.000,45.000 C32.000,45.552 31.552,46.000 31.000,46.000 ZM31.000,35.000 L28.000,35.000 C27.448,35.000 27.000,34.552 27.000,34.000 L27.000,29.000 C27.000,28.448 27.448,28.000 28.000,28.000 L31.000,28.000 C31.552,28.000 32.000,28.448 32.000,29.000 L32.000,34.000 C32.000,34.552 31.552,35.000 31.000,35.000 ZM15.000,59.000 L12.000,59.000 C11.448,59.000 11.000,58.552 11.000,58.000 L11.000,53.000 C11.000,52.448 11.448,52.000 12.000,52.000 L15.000,52.000 C15.552,52.000 16.000,52.448 16.000,53.000 L16.000,58.000 C16.000,58.552 15.552,59.000 15.000,59.000 ZM15.000,47.000 L12.000,47.000 C11.448,47.000 11.000,46.552 11.000,46.000 L11.000,41.000 C11.000,40.448 11.448,40.000 12.000,40.000 L15.000,40.000 C15.552,40.000 16.000,40.448 16.000,41.000 L16.000,46.000 C16.000,46.552 15.552,47.000 15.000,47.000 Z"/>
    <path fill-rule="evenodd"  stroke="rgb(102, 102, 102)" stroke-width="2px" stroke-linecap="butt" stroke-linejoin="miter" fill="rgb(229, 229, 229)"
          d="M38.000,50.000 C42.418,50.000 46.000,53.582 46.000,58.000 L46.000,67.000 L30.000,67.000 L30.000,58.000 C30.000,53.582 33.582,50.000 38.000,50.000 Z"/>
    <path fill-rule="evenodd"  stroke="rgb(102, 102, 102)" stroke-width="2px" stroke-linecap="butt" stroke-linejoin="miter" fill="rgb(250, 250, 250)"
          d="M3.000,65.000 L73.000,65.000 C74.105,65.000 75.000,65.895 75.000,67.000 L75.000,72.000 C75.000,73.105 74.105,74.000 73.000,74.000 L3.000,74.000 C1.895,74.000 1.000,73.105 1.000,72.000 L1.000,67.000 C1.000,65.895 1.895,65.000 3.000,65.000 Z"/>
    <path fill-rule="evenodd"  stroke="rgb(102, 102, 102)" stroke-width="2px" stroke-linecap="butt" stroke-linejoin="miter" fill="rgb(255, 255, 255)"
          d="M26.000,65.000 L50.000,65.000 L50.000,74.000 L26.000,74.000 L26.000,65.000 Z"/>
    <path fill-rule="evenodd"  stroke="rgb(102, 102, 102)" stroke-width="2px" stroke-linecap="butt" stroke-linejoin="miter" fill="rgb(250, 250, 250)"
          d="M59.000,72.000 L59.000,67.000 L61.000,67.000 L61.000,72.000 L59.000,72.000 ZM16.000,67.000 L18.000,67.000 L18.000,72.000 L16.000,72.000 L16.000,67.000 Z"/>
</svg>