<svg
        xmlns="http://www.w3.org/2000/svg"
        xmlns:xlink="http://www.w3.org/1999/xlink"
        width="73px" height="70px">
    <path fill-rule="evenodd"  fill="rgb(250, 250, 250)"
          d="M17.375,24.438 L53.625,24.438 L53.625,59.625 L17.375,59.625 L17.375,24.438 Z"/>
    <path fill-rule="evenodd"  stroke="rgb(102, 102, 102)" stroke-width="2px" stroke-linecap="butt" stroke-linejoin="miter" fill="rgb(229, 229, 229)"
          d="M46.000,55.000 L46.000,33.000 L58.000,33.000 L58.000,55.000 L46.000,55.000 ZM14.000,33.000 L26.000,33.000 L26.000,55.000 L14.000,55.000 L14.000,33.000 Z"/>
    <path fill-rule="evenodd"  stroke="rgb(102, 102, 102)" stroke-width="2px" stroke-linecap="butt" stroke-linejoin="miter" fill="rgb(250, 250, 250)"
          d="M4.000,60.000 L68.000,60.000 C69.105,60.000 70.000,60.895 70.000,62.000 L70.000,66.000 C70.000,67.105 69.105,68.000 68.000,68.000 L4.000,68.000 C2.895,68.000 2.000,67.105 2.000,66.000 L2.000,62.000 C2.000,60.895 2.895,60.000 4.000,60.000 Z"/>
    <path fill-rule="evenodd"  stroke="rgb(102, 102, 102)" stroke-width="2px" stroke-linecap="butt" stroke-linejoin="miter" fill="rgb(250, 250, 250)"
          d="M42.000,62.000 L42.000,54.000 C42.000,51.791 43.791,50.000 46.000,50.000 L58.000,50.000 C60.209,50.000 62.000,51.791 62.000,54.000 L62.000,62.000 L42.000,62.000 ZM58.000,36.000 L46.000,36.000 C43.791,36.000 42.000,34.209 42.000,32.000 L42.000,24.000 L62.000,24.000 L62.000,32.000 C62.000,34.209 60.209,36.000 58.000,36.000 ZM10.000,54.000 C10.000,51.791 11.791,50.000 14.000,50.000 L26.000,50.000 C28.209,50.000 30.000,51.791 30.000,54.000 L30.000,62.000 L10.000,62.000 L10.000,54.000 ZM26.000,36.000 L14.000,36.000 C11.791,36.000 10.000,34.209 10.000,32.000 L10.000,24.000 L30.000,24.000 L30.000,32.000 C30.000,34.209 28.209,36.000 26.000,36.000 Z"/>
    <path fill-rule="evenodd"  stroke="rgb(102, 102, 102)" stroke-width="2px" stroke-linecap="butt" stroke-linejoin="miter" fill="rgb(250, 250, 250)"
          d="M68.242,27.012 C70.152,27.210 70.436,25.239 69.483,24.535 L37.704,1.520 C36.750,0.816 35.205,0.816 34.252,1.520 L2.473,24.535 C1.519,25.239 1.963,27.263 3.714,27.012 L68.242,27.012 Z"/>
</svg>