<svg
        xmlns="http://www.w3.org/2000/svg"
        xmlns:xlink="http://www.w3.org/1999/xlink"
        width="24.5px" height="24.5px">
    <path fill-rule="evenodd"  stroke="rgb(51, 153, 255)" stroke-width="3px" stroke-linecap="butt" stroke-linejoin="miter" fill="none"
          d="M21.399,8.500 C21.192,9.080 20.651,9.500 20.000,9.500 C19.349,9.500 18.808,9.080 18.601,8.500 L18.500,8.500 L18.500,6.598 L14.377,10.720 C15.081,11.812 15.500,13.105 15.500,14.500 C15.500,18.366 12.366,21.500 8.500,21.500 C4.634,21.500 1.500,18.366 1.500,14.500 C1.500,10.634 4.634,7.500 8.500,7.500 C9.878,7.500 11.155,7.912 12.238,8.600 L16.339,4.500 L14.500,4.500 L14.500,4.399 C13.920,4.191 13.500,3.651 13.500,3.000 C13.500,2.349 13.920,1.808 14.500,1.601 L14.500,1.500 L19.500,1.500 C20.605,1.500 21.500,2.395 21.500,3.500 L21.500,8.500 L21.399,8.500 Z"/>
</svg>