<svg
        xmlns="http://www.w3.org/2000/svg"
        xmlns:xlink="http://www.w3.org/1999/xlink"
        width="44px" height="41px">
    <path fill-rule="evenodd"  fill="rgb(51, 153, 255)"
          d="M44.000,37.000 C44.000,39.209 42.209,41.000 40.000,41.000 L34.000,41.000 L32.000,41.000 C29.791,41.000 28.000,39.209 28.000,37.000 L28.000,34.000 C28.000,32.895 27.105,32.000 26.000,32.000 L21.998,32.000 L21.998,32.000 L21.997,32.000 L18.000,32.000 C16.895,32.000 16.000,32.895 16.000,34.000 L16.000,37.000 C16.000,39.209 14.209,41.000 12.000,41.000 L10.000,41.000 L4.000,41.000 C1.791,41.000 -0.000,39.209 -0.000,37.000 L-0.000,15.008 L-0.003,15.006 L-0.000,15.004 L-0.000,15.000 L0.006,15.000 L17.597,1.412 C20.028,-0.465 23.968,-0.465 26.398,1.412 L43.989,15.000 L44.000,15.000 L44.000,37.000 Z"/>
</svg>