<svg
        xmlns="http://www.w3.org/2000/svg"
        xmlns:xlink="http://www.w3.org/1999/xlink"
        width="48.5px" height="45.5px">
    <path fill-rule="evenodd"  stroke="rgb(85, 85, 85)" stroke-width="3px" stroke-linecap="butt" stroke-linejoin="miter" fill="none"
          d="M45.500,38.500 C45.500,40.709 43.709,42.500 41.500,42.500 L35.500,42.500 L33.500,42.500 C31.291,42.500 29.500,40.709 29.500,38.500 L29.500,35.500 C29.500,34.395 28.605,33.500 27.500,33.500 L19.500,33.500 C18.395,33.500 17.500,34.395 17.500,35.500 L17.500,38.500 C17.500,40.709 15.709,42.500 13.500,42.500 L11.500,42.500 L5.500,42.500 C3.291,42.500 1.500,40.709 1.500,38.500 L1.500,16.508 L1.497,16.506 L1.500,16.504 L1.500,16.500 L1.505,16.500 L19.097,2.912 C21.528,1.034 25.468,1.034 27.898,2.912 L45.490,16.500 L45.500,16.500 L45.500,38.500 Z"/>
</svg>