<svg
        xmlns="http://www.w3.org/2000/svg"
        xmlns:xlink="http://www.w3.org/1999/xlink"
        width="17.5px" height="24.5px">
    <path fill-rule="evenodd"  stroke="rgb(255, 56, 199)" stroke-width="3px" stroke-linecap="butt" stroke-linejoin="miter" fill="none"
          d="M9.500,14.319 L9.500,15.500 L12.000,15.500 C12.828,15.500 13.500,16.171 13.500,17.000 C13.500,17.828 12.828,18.500 12.000,18.500 L9.500,18.500 L9.500,20.000 C9.500,20.828 8.828,21.500 8.000,21.500 C7.172,21.500 6.500,20.828 6.500,20.000 L6.500,18.500 L4.000,18.500 C3.172,18.500 2.500,17.828 2.500,17.000 C2.500,16.171 3.172,15.500 4.000,15.500 L6.500,15.500 L6.500,14.319 C3.635,13.641 1.500,11.073 1.500,8.000 C1.500,4.410 4.410,1.500 8.000,1.500 C11.590,1.500 14.500,4.410 14.500,8.000 C14.500,11.073 12.365,13.641 9.500,14.319 Z"/>
</svg>