<svg
        xmlns="http://www.w3.org/2000/svg"
        xmlns:xlink="http://www.w3.org/1999/xlink"
        width="22px" height="16px">
    <path fill-rule="evenodd"  fill="rgb(254, 213, 71)"
          d="M20.000,16.000 L2.000,16.000 C0.895,16.000 -0.000,15.104 -0.000,14.000 L-0.000,2.000 C-0.000,0.895 0.895,-0.000 2.000,-0.000 L20.000,-0.000 C21.105,-0.000 22.000,0.895 22.000,2.000 L22.000,14.000 C22.000,15.104 21.105,16.000 20.000,16.000 ZM3.000,9.000 L7.000,9.000 C7.552,9.000 8.000,8.552 8.000,8.000 C8.000,7.448 7.552,7.000 7.000,7.000 L3.000,7.000 C2.448,7.000 2.000,7.448 2.000,8.000 C2.000,8.552 2.448,9.000 3.000,9.000 ZM11.000,3.000 L3.000,3.000 C2.448,3.000 2.000,3.447 2.000,4.000 C2.000,4.552 2.448,5.000 3.000,5.000 L11.000,5.000 C11.552,5.000 12.000,4.552 12.000,4.000 C12.000,3.447 11.552,3.000 11.000,3.000 ZM19.721,8.263 C19.345,7.886 18.734,7.886 18.357,8.263 L15.049,11.571 L12.769,9.292 C12.363,8.886 11.705,8.886 11.300,9.292 C10.894,9.697 10.894,10.355 11.300,10.761 L14.238,13.699 C14.244,13.705 14.252,13.707 14.258,13.712 C14.260,13.715 14.261,13.718 14.264,13.721 C14.455,13.913 14.707,14.004 14.958,14.001 C15.229,14.005 15.501,13.906 15.708,13.699 C15.759,13.648 15.784,13.585 15.822,13.527 L19.721,9.627 C20.098,9.251 20.098,8.640 19.721,8.263 Z"/>
</svg>