<svg
        xmlns="http://www.w3.org/2000/svg"
        xmlns:xlink="http://www.w3.org/1999/xlink"
        width="69.5px" height="75.5px">
    <path fill-rule="evenodd"  stroke="rgb(51, 153, 255)" stroke-width="2px" stroke-linecap="butt" stroke-linejoin="miter" fill="rgb(232, 243, 253)"
          d="M49.000,20.030 L49.000,20.000 C49.000,15.582 45.418,12.000 41.000,12.000 L25.000,12.000 C20.582,12.000 17.000,15.582 17.000,20.000 L17.000,20.030 L8.017,15.000 L33.000,1.010 L57.983,15.000 L49.000,20.030 Z"/>
    <path fill-rule="evenodd"  fill="rgb(51, 153, 255)"
          d="M47.000,41.000 C46.699,41.000 46.415,40.914 46.141,40.790 C44.183,46.159 39.047,50.000 33.000,50.000 C26.655,50.000 21.303,45.776 19.584,39.988 C19.556,39.989 19.529,40.000 19.500,40.000 C18.119,40.000 17.000,38.433 17.000,36.500 C17.000,34.807 17.859,33.395 19.000,33.071 L19.000,25.236 C33.107,20.138 42.989,23.159 47.000,24.956 L47.000,32.000 C48.657,32.000 50.000,34.015 50.000,36.500 C50.000,38.985 48.657,41.000 47.000,41.000 ZM40.000,27.000 C36.705,31.166 22.000,31.000 22.000,31.000 C20.915,48.017 33.000,49.000 33.000,49.000 C44.432,49.000 46.000,30.000 46.000,30.000 C45.619,28.515 40.000,27.000 40.000,27.000 ZM19.000,23.518 L19.000,20.000 C19.000,16.686 21.686,14.000 25.000,14.000 L41.000,14.000 C44.314,14.000 47.000,16.686 47.000,20.000 L47.000,23.546 C33.974,17.754 22.390,21.999 19.000,23.518 Z"/>
    <path fill-rule="evenodd"  stroke="rgb(51, 153, 255)" stroke-width="3px" stroke-linecap="butt" stroke-linejoin="miter" fill="none"
          d="M13.000,36.938 L13.000,37.000 C10.070,37.488 10.000,34.000 10.000,34.000 C9.825,32.327 13.000,17.000 13.000,17.000 C13.000,17.000 16.175,32.280 16.000,33.947 C16.000,33.947 15.930,37.424 13.000,36.938 Z"/>
    <path fill-rule="evenodd"  stroke="rgb(51, 153, 255)" stroke-width="2px" stroke-linecap="butt" stroke-linejoin="miter" fill="rgb(232, 243, 253)"
          d="M65.000,73.000 L3.000,73.000 C1.895,73.000 1.000,72.105 1.000,71.000 C1.000,61.220 13.506,53.085 24.040,51.348 C24.095,51.616 24.187,51.874 24.362,52.084 L28.056,56.517 C28.566,57.129 29.393,57.129 29.903,56.517 L33.597,52.084 C33.847,51.784 33.971,51.393 33.976,51.000 L33.981,51.000 C33.982,51.397 34.109,51.794 34.363,52.097 L38.069,56.518 C38.580,57.129 39.410,57.129 39.922,56.518 L43.628,52.097 C43.806,51.884 43.899,51.620 43.953,51.347 C54.488,53.081 67.000,61.218 67.000,71.000 C67.000,72.105 66.105,73.000 65.000,73.000 Z"/>
</svg>