<?xml version="1.0" standalone="no"?><!DOCTYPE svg PUBLIC "-//W3C//DTD SVG 1.1//EN" "http://www.w3.org/Graphics/SVG/1.1/DTD/svg11.dtd"><svg class="icon" width="16px" height="16.00px" viewBox="0 0 1024 1024" version="1.1" xmlns="http://www.w3.org/2000/svg"><path d="M694.81728 65.536q105.70752 0 180.845568 53.425152t75.138048 129.420288l0 511.967232q0 74.28096-71.709696 126.849024t-174.560256 55.425024l121.706496 115.421184q9.142272 8.57088 4.571136 19.99872t-17.14176 11.42784l-603.389952 0q-12.570624 0-17.14176-11.42784t4.571136-19.99872l121.706496-115.421184q-102.85056-2.85696-174.560256-55.425024t-71.709696-126.849024l0-511.967232q0-75.995136 75.138048-129.420288t180.845568-53.425152l365.69088 0zm-457.1136 749.666304q37.711872 0 64.567296-26.855424t26.855424-64.567296-26.855424-64.567296-64.567296-26.855424-64.567296 26.855424-26.855424 64.567296 26.855424 64.567296 64.567296 26.855424zm237.699072-310.837248l0-292.552704-310.837248 0 0 292.552704 310.837248 0zm310.837248 310.837248q37.711872 0 64.567296-26.855424t26.855424-64.567296-26.855424-64.567296-64.567296-26.855424-64.567296 26.855424-26.855424 64.567296 26.855424 64.567296 64.567296 26.855424zm91.42272-310.837248l0-292.552704-329.121792 0 0 292.552704 329.121792 0z" /></svg>