<svg
        xmlns="http://www.w3.org/2000/svg"
        xmlns:xlink="http://www.w3.org/1999/xlink"
        width="20px" height="20px">
    <path fill-rule="evenodd"  fill="rgb(216, 216, 216)"
          d="M9.000,18.000 C4.029,18.000 -0.000,13.970 -0.000,9.000 C-0.000,4.029 4.029,-0.000 9.000,-0.000 C13.971,-0.000 18.000,4.029 18.000,9.000 C18.000,13.970 13.971,18.000 9.000,18.000 ZM12.552,11.134 L10.000,9.531 L10.000,3.500 C10.000,3.224 9.776,3.000 9.500,3.000 L8.500,3.000 C8.224,3.000 8.000,3.224 8.000,3.500 L8.000,9.858 C7.995,9.893 8.001,9.927 8.000,9.963 L8.000,10.500 C8.000,10.776 8.224,11.000 8.500,11.000 L8.661,11.000 L11.633,12.866 C12.073,13.142 12.635,12.978 12.889,12.500 C13.143,12.021 12.992,11.410 12.552,11.134 Z"/>
</svg>