<svg
        xmlns="http://www.w3.org/2000/svg"
        xmlns:xlink="http://www.w3.org/1999/xlink"
        width="32px" height="32px">
    <defs>
        <linearGradient id="PSgrad_0" x1="17.365%" x2="0%" y1="98.481%" y2="0%">
            <stop offset="0%" stop-color="rgb(255,163,0)" stop-opacity="1" />
            <stop offset="100%" stop-color="rgb(255,210,114)" stop-opacity="1" />
            <stop offset="100%" stop-color="rgb(255,210,114)" stop-opacity="1" />
        </linearGradient>

    </defs>
    <path fill-rule="evenodd"  fill="rgb(255, 163, 0)"
          d="M15.500,30.000 L14.500,30.000 C6.492,30.000 -0.000,23.508 -0.000,15.500 L-0.000,14.500 C-0.000,6.492 6.492,-0.000 14.500,-0.000 L15.500,-0.000 C23.508,-0.000 30.000,6.492 30.000,14.500 L30.000,15.500 C30.000,23.508 23.508,30.000 15.500,30.000 ZM19.800,9.999 L16.200,19.599 L13.000,11.066 L13.000,10.500 C13.000,10.262 12.831,10.072 12.608,10.022 L12.600,9.999 L9.000,9.999 L9.000,10.000 L8.500,10.000 C8.224,10.000 8.000,10.224 8.000,10.500 L8.000,11.500 C8.000,11.776 8.224,12.000 8.500,12.000 L9.800,12.000 L13.800,21.999 L17.200,21.999 L22.000,9.999 L19.800,9.999 Z"/>
    <path fill="url(#PSgrad_0)"
          d="M15.500,30.000 L14.500,30.000 C6.492,30.000 -0.000,23.508 -0.000,15.500 L-0.000,14.500 C-0.000,6.492 6.492,-0.000 14.500,-0.000 L15.500,-0.000 C23.508,-0.000 30.000,6.492 30.000,14.500 L30.000,15.500 C30.000,23.508 23.508,30.000 15.500,30.000 ZM19.800,9.999 L16.200,19.599 L13.000,11.066 L13.000,10.500 C13.000,10.262 12.831,10.072 12.608,10.022 L12.600,9.999 L9.000,9.999 L9.000,10.000 L8.500,10.000 C8.224,10.000 8.000,10.224 8.000,10.500 L8.000,11.500 C8.000,11.776 8.224,12.000 8.500,12.000 L9.800,12.000 L13.800,21.999 L17.200,21.999 L22.000,9.999 L19.800,9.999 Z"/>
</svg>