<svg
        xmlns="http://www.w3.org/2000/svg"
        xmlns:xlink="http://www.w3.org/1999/xlink"
        width="42px" height="42px">
    <path fill-rule="evenodd"  fill="rgb(204, 204, 204)"
          d="M20.000,40.000 C8.954,40.000 -0.000,31.046 -0.000,20.000 C-0.000,8.954 8.954,-0.000 20.000,-0.000 C31.046,-0.000 40.000,8.954 40.000,20.000 C40.000,31.046 31.046,40.000 20.000,40.000 ZM20.000,2.000 C10.059,2.000 2.000,10.059 2.000,20.000 C2.000,29.941 10.059,38.000 20.000,38.000 C29.941,38.000 38.000,29.941 38.000,20.000 C38.000,10.059 29.941,2.000 20.000,2.000 ZM27.000,22.000 L22.000,22.000 L22.000,27.000 C22.000,28.105 21.105,29.000 20.000,29.000 C18.895,29.000 18.000,28.105 18.000,27.000 L18.000,22.000 L13.000,22.000 C11.895,22.000 11.000,21.104 11.000,20.000 C11.000,18.895 11.895,18.000 13.000,18.000 L18.000,18.000 L18.000,13.000 C18.000,11.895 18.895,11.000 20.000,11.000 C21.105,11.000 22.000,11.895 22.000,13.000 L22.000,18.000 L27.000,18.000 C28.105,18.000 29.000,18.895 29.000,20.000 C29.000,21.104 28.105,22.000 27.000,22.000 Z"/>
</svg>