<?xml version="1.0" standalone="no"?><!DOCTYPE svg PUBLIC "-//W3C//DTD SVG 1.1//EN" "http://www.w3.org/Graphics/SVG/1.1/DTD/svg11.dtd"><svg class="icon" width="16px" height="16.00px" viewBox="0 0 1024 1024" version="1.1" xmlns="http://www.w3.org/2000/svg"><path d="M896 91.428571q25.142857 29.714286 6.857143 84.571429t-61.714286 98.285714l-92 92 91.428571 397.714286q2.857143 10.857143-6.857143 18.857143l-73.142857 54.857143q-4 3.428571-10.857143 3.428571-2.285714 0-4-0.571429-8.571429-1.714286-12-9.142857l-159.428571-290.285714-148 148 30.285714 110.857143q2.857143 9.714286-4.571429 17.714286l-54.857143 54.857143q-5.142857 5.142857-13.142857 5.142857l-1.142857 0q-8.571429-1.142857-13.714286-7.428571l-108-144-144-108q-6.285714-4-7.428571-13.142857-0.571429-7.428571 5.142857-14.285714l54.857143-55.428571q5.142857-5.142857 13.142857-5.142857 3.428571 0 4.571429 0.571429l110.857143 30.285714 148-148-290.285714-159.428571q-8-4.571429-9.714286-13.714286-1.142857-9.142857 5.142857-15.428571l73.142857-73.142857q8-7.428571 17.142857-4.571429l380 90.857143 91.428571-91.428571q43.428571-43.428571 98.285714-61.714286t84.571429 6.857143z" /></svg>