<?xml version="1.0" standalone="no"?><!DOCTYPE svg PUBLIC "-//W3C//DTD SVG 1.1//EN" "http://www.w3.org/Graphics/SVG/1.1/DTD/svg11.dtd"><svg class="icon" width="16px" height="14.27px" viewBox="0 0 1148 1024" version="1.1" xmlns="http://www.w3.org/2000/svg"><path d="M1024 888.571429q10.857143-10.857143 25.714286-10.857143t25.714285 10.857143l73.142858 73.142857-51.428572 51.428571-47.428571-47.428571-47.428572 47.428571q-10.285714 10.857143-25.714285 10.857143t-25.714286-10.857143l-47.428572-47.428571-47.428571 47.428571q-10.857143 10.857143-25.714286 10.857143t-25.714285-10.857143l-47.428572-47.428571-47.428571 47.428571q-10.857143 10.857143-25.714286 10.857143t-25.714286-10.857143l-47.428571-47.428571-47.428572 47.428571q-10.857143 10.857143-25.714285 10.857143t-25.714286-10.857143l-47.428571-47.428571-47.428572 47.428571q-10.857143 10.857143-25.714286 10.857143t-25.714285-10.857143l-47.428572-47.428571-47.428571 47.428571q-10.857143 10.857143-25.714286 10.857143t-25.714286-10.857143l-47.428571-47.428571-47.428571 47.428571q-10.857143 10.857143-25.714286 10.857143t-25.714286-10.857143l-73.142857-73.142857 51.428571-51.428571 47.428572 47.428571 47.428571-47.428571q10.857143-10.857143 25.714286-10.857143t25.714286 10.857143l47.428571 47.428571 47.428572-47.428571q10.857143-10.857143 25.714285-10.857143t25.714286 10.857143l47.428571 47.428571 47.428572-47.428571q10.857143-10.857143 25.714286-10.857143t25.714285 10.857143l47.428572 47.428571 47.428571-47.428571q10.857143-10.857143 25.714286-10.857143t25.714286 10.857143l47.428571 47.428571 47.428571-47.428571q10.857143-10.857143 25.714286-10.857143t25.714286 10.857143l47.428571 47.428571 47.428572-47.428571q10.857143-10.857143 25.714285-10.857143t25.714286 10.857143l47.428572 47.428571z m-899.428571-21.714286q-10.857143 10.857143-25.714286 10.857143t-25.714286-10.857143l-73.142857-73.142857 51.428571-51.428572 47.428572 46.857143 47.428571-46.857143q10.857143-10.857143 25.714286-10.857143t25.714286 10.857143l47.428571 46.857143 36.571429-36.571428v-167.428572L161.714286 405.714286q-9.714286-14.857143-4-32.285715t22.857143-23.142857l101.142857-33.142857V146.285714h73.142857V73.142857h146.285714V0h146.285714v73.142857h146.285715v73.142857h73.142857v170.857143l101.142857 33.142857q17.142857 5.714286 22.857143 23.142857t-4 32.285715l-120 179.428571v167.428572l10.857143-10.285715q10.857143-10.857143 25.714285-10.857143t25.714286 10.857143l47.428572 46.857143 47.428571-46.857143q10.857143-10.857143 25.714286-10.857143t25.714285 10.857143l73.142858 73.142857-51.428572 51.428572-47.428571-47.428572-47.428572 47.428572q-10.285714 10.857143-25.714285 10.857143t-25.714286-10.857143l-47.428572-47.428572-47.428571 47.428572q-10.857143 10.857143-25.714286 10.857143t-25.714285-10.857143l-47.428572-47.428572-47.428571 47.428572q-10.857143 10.857143-25.714286 10.857143t-25.714286-10.857143l-47.428571-47.428572-47.428572 47.428572q-10.857143 10.857143-25.714285 10.857143t-25.714286-10.857143l-47.428571-47.428572-47.428572 47.428572q-10.857143 10.857143-25.714286 10.857143t-25.714285-10.857143l-47.428572-47.428572-47.428571 47.428572q-10.857143 10.857143-25.714286 10.857143t-25.714286-10.857143l-47.428571-47.428572zM354.857143 219.428571v73.142858l219.428571-73.142858 219.428572 73.142858V219.428571h-73.142857V146.285714H428v73.142857H354.857143z" /></svg>